<svg width="610" height="371" viewBox="0 0 610 371" fill="none" xmlns="http://www.w3.org/2000/svg">
<path opacity="0.7" d="M176.034 112.963C149.676 225.173 47.6955 276.445 0 288.056C51.963 282.784 97.2829 284.733 104.5 289.126C170.019 261.262 258.873 283.035 304.059 294.645C378.614 269.04 472.494 278.458 504.5 289.126C536.13 268.04 584.27 285.859 610 294.645C488 226.114 439.928 69.6605 431.142 0H401.96C382.191 127.083 326.5 170.599 284.29 176.975C253.5 181.626 218.395 137.752 206.157 112.963H176.034Z" fill="white"/>
<path d="M419.844 65.8953H410.43L402.899 118.611L375.6 154.383H385.955V209.923H176.032L104.489 288.585V368.071H504.566V288.585L444.319 209.923V154.383H453.733L429.257 118.611L419.844 65.8953Z" fill="white"/>
<path fill-rule="evenodd" clip-rule="evenodd" d="M504.566 289.083V288.585L444.319 209.923V154.383H453.733L429.257 118.611L419.844 65.8953H410.43L402.899 118.611L375.6 154.383H385.955V209.923H176.032L104.489 288.585V289.12C104.493 289.122 104.496 289.124 104.5 289.126C170.019 261.262 258.873 283.035 304.059 294.645C378.614 269.04 472.494 278.458 504.5 289.126C504.522 289.112 504.544 289.097 504.566 289.083Z" fill="black"/>
<path fill-rule="evenodd" clip-rule="evenodd" d="M415 41.6264C413.895 41.6264 413 42.5218 413 43.6264V47.6264H410C408.895 47.6264 408 48.5218 408 49.6264C408 50.731 408.895 51.6264 410 51.6264H413V68.6264H417V51.6264H420C421.105 51.6264 422 50.731 422 49.6264C422 48.5218 421.105 47.6264 420 47.6264H417V43.6264C417 42.5218 416.105 41.6264 415 41.6264Z" fill="black"/>
<path fill-rule="evenodd" clip-rule="evenodd" d="M103.817 288.368C104.512 288.82 104.709 289.749 104.258 290.443L54.258 367.443C53.8069 368.138 52.8779 368.336 52.1831 367.884C51.4883 367.433 51.2908 366.504 51.742 365.809L101.742 288.809C102.193 288.115 103.122 287.917 103.817 288.368Z" fill="white"/>
<path fill-rule="evenodd" clip-rule="evenodd" d="M304.812 292.865C305.509 293.314 305.71 294.242 305.261 294.939L257.261 369.439C256.812 370.135 255.884 370.336 255.188 369.887C254.491 369.439 254.29 368.51 254.739 367.814L302.739 293.314C303.188 292.618 304.116 292.417 304.812 292.865Z" fill="black"/>
<path fill-rule="evenodd" clip-rule="evenodd" d="M304.188 292.865C303.491 293.314 303.29 294.242 303.739 294.939L351.739 369.439C352.188 370.135 353.116 370.336 353.812 369.887C354.509 369.439 354.71 368.51 354.261 367.814L306.261 293.314C305.812 292.618 304.884 292.417 304.188 292.865Z" fill="black"/>
<path fill-rule="evenodd" clip-rule="evenodd" d="M504.183 288.368C504.878 287.917 505.807 288.115 506.258 288.809L556.258 365.809C556.709 366.504 556.512 367.433 555.817 367.884C555.122 368.336 554.193 368.138 553.742 367.443L503.742 290.443C503.291 289.749 503.488 288.82 504.183 288.368Z" fill="white"/>
</svg>
