<?xml version="1.0" standalone="no"?>
<!DOCTYPE svg PUBLIC "-//W3C//DTD SVG 20010904//EN"
 "http://www.w3.org/TR/2001/REC-SVG-20010904/DTD/svg10.dtd">
<svg version="1.0" xmlns="http://www.w3.org/2000/svg"
 width="144.000000pt" height="144.000000pt" viewBox="0 0 144.000000 144.000000"
 preserveAspectRatio="xMidYMid meet">
<metadata>
Created by potrace 1.14, written by Peter Selinger 2001-2017
</metadata>
<g transform="translate(0.000000,144.000000) scale(0.100000,-0.100000)"
fill="#000000" stroke="none">
<path d="M949 1141 c-1 -9 -2 -26 -2 -38 -1 -12 -4 -20 -8 -17 -12 7 -16 -55
-5 -67 8 -9 8 -10 -2 -5 -7 4 -15 0 -18 -11 -3 -10 -15 -37 -25 -61 -11 -24
-16 -48 -13 -54 4 -6 3 -8 -3 -5 -14 9 -56 -50 -47 -66 4 -6 4 -9 -1 -5 -10
10 -67 -31 -60 -43 4 -5 0 -6 -8 -3 -8 3 -18 1 -22 -5 -3 -6 -15 -11 -26 -11
-11 0 -18 -4 -15 -9 6 -10 -64 2 -84 14 -8 5 -11 4 -6 -3 3 -6 1 -14 -5 -18
-8 -4 -9 -3 -5 4 8 13 -72 99 -87 94 -4 -1 -6 2 -2 7 3 6 0 19 -7 30 -10 16
-15 18 -27 8 -10 -8 -13 -8 -8 -1 10 17 -18 25 -36 11 -8 -7 -20 -30 -27 -51
-7 -22 -21 -54 -32 -72 -11 -18 -17 -38 -13 -44 3 -6 0 -7 -9 -4 -9 3 -16 1
-16 -5 0 -6 0 -13 0 -16 0 -3 -28 -31 -63 -62 -34 -32 -61 -65 -59 -73 3 -13
2 -13 -8 0 -9 13 -12 12 -26 -5 -8 -11 -18 -20 -22 -20 -4 0 -6 -6 -4 -15 2
-11 1 -12 -6 -2 -9 14 -42 6 -42 -10 0 -5 -4 -6 -10 -3 -5 3 -22 -1 -37 -9
-28 -14 -27 -15 19 -10 83 9 146 9 141 1 -3 -5 3 -7 13 -5 17 3 19 -5 19 -92
l0 -95 473 -3 472 -2 0 95 c0 93 1 96 26 105 14 6 41 10 59 10 21 0 38 6 45
18 11 16 11 16 6 0 -4 -13 2 -19 22 -24 15 -3 38 -10 52 -15 l25 -10 -25 21
c-14 11 -28 20 -32 20 -4 0 -19 11 -33 26 -14 14 -30 22 -37 18 -6 -4 -8 -3
-5 3 3 5 -8 25 -26 45 -18 19 -36 41 -42 50 -5 8 -23 35 -39 59 -40 60 -96
169 -96 186 0 8 -4 12 -9 9 -5 -3 -8 0 -7 7 2 20 -27 117 -35 117 -4 0 -6 9
-4 20 2 11 0 20 -5 20 -4 0 -7 8 -6 18 2 9 0 28 -4 42 -5 19 -13 25 -38 26
-23 1 -32 -4 -33 -15z m61 -35 c0 -2 -7 -7 -16 -10 -8 -3 -12 -2 -9 4 6 10 25
14 25 6z m20 -166 c0 -5 -5 -10 -11 -10 -5 0 -7 5 -4 10 3 6 8 10 11 10 2 0 4
-4 4 -10z m-107 -15 c-3 -9 -8 -14 -10 -11 -3 3 -2 9 2 15 9 16 15 13 8 -4z
m160 -50 c4 -8 3 -16 -1 -19 -4 -3 -9 4 -9 15 -2 23 3 25 10 4z m42 -104 c3
-5 2 -12 -3 -15 -5 -3 -9 1 -9 9 0 17 3 19 12 6z m-744 -24 c-10 -9 -11 -8 -5
6 3 10 9 15 12 12 3 -3 0 -11 -7 -18z m80 0 c-10 -9 -11 -8 -5 6 3 10 9 15 12
12 3 -3 0 -11 -7 -18z m105 11 c3 -4 -1 -5 -10 -4 -8 1 -18 5 -22 8 -3 4 1 5
10 4 8 -1 18 -5 22 -8z m339 2 c3 -5 1 -10 -4 -10 -6 0 -11 5 -11 10 0 6 2 10
4 10 3 0 8 -4 11 -10z m225 -24 c0 -2 -6 -9 -14 -15 -11 -9 -16 -9 -22 0 -4 7
-3 9 4 5 6 -3 13 -2 17 4 6 10 15 14 15 6z m-660 -16 c0 -5 -5 -10 -11 -10 -5
0 -7 5 -4 10 3 6 8 10 11 10 2 0 4 -4 4 -10z m425 0 c3 -6 -1 -7 -9 -4 -18 7
-21 14 -7 14 6 0 13 -4 16 -10z m-368 -15 c0 -8 -4 -12 -9 -9 -5 3 -6 10 -3
15 9 13 12 11 12 -6z m243 1 c0 -2 -7 -7 -16 -10 -8 -3 -12 -2 -9 4 6 10 25
14 25 6z m-327 -19 c4 3 7 1 7 -5 0 -17 -16 -15 -31 6 -12 15 -12 16 2 5 9 -7
19 -10 22 -6z m762 -27 c3 -5 1 -10 -4 -10 -6 0 -11 5 -11 10 0 6 2 10 4 10 3
0 8 -4 11 -10z m-35 -16 c0 -8 -19 -13 -24 -6 -3 5 1 9 9 9 8 0 15 -2 15 -3z
m-896 -42 c3 -5 -1 -9 -9 -9 -8 0 -12 4 -9 9 3 4 7 8 9 8 2 0 6 -4 9 -8z m927
-9 c12 -16 12 -17 -2 -6 -9 7 -20 9 -24 5 -5 -4 -5 -1 -1 6 9 16 11 15 27 -5z
m-41 -9 c0 -8 -19 -13 -24 -6 -3 5 1 9 9 9 8 0 15 -2 15 -3z m105 -12 c-3 -3
-11 0 -18 7 -9 10 -8 11 6 5 10 -3 15 -9 12 -12z m-1001 -10 c3 -5 -1 -9 -9
-9 -8 0 -12 4 -9 9 3 4 7 8 9 8 2 0 6 -4 9 -8z m-54 -26 c0 -2 -8 -10 -17 -17
-16 -13 -17 -12 -4 4 13 16 21 21 21 13z"/>
</g>
</svg>
